<svg viewBox="0 0 12 12" width="60px" height="60px" xmlns="http://www.w3.org/2000/svg"><path fill-rule="evenodd" d="M 4,0 7,0 7,1 10,1 10,2 11,2 11,6 10,6 10,7 9,7 9,9 8,9 8,11 3,11 3,9 2,9 2,7 1,7 1,6 0,6 0,2 1,2 1,1 4,1z" fill="#F0B726"/><path fill-rule="evenodd" d="M 5,1 6,1 6,2 5,2z" fill="#ffffff"/><path fill-rule="evenodd" d="M 2,2 4,2 4,3 7,3 7,2 9,2 9,3 10,3 10,5 9,5 9,6 7,6 7,4 6,4 6,6 5,6 5,4 4,4 4,6 2,6 2,5 1,5 1,3 2,3z" fill="#ffffff"/><path fill-rule="evenodd" d="M 4,6 5,6 5,7 4,7z" fill="#ffffff"/><path fill-rule="evenodd" d="M 6,6 7,6 7,7 6,7z" fill="#ffffff"/><path fill-rule="evenodd" d="M 3,7 4,7 4,8 3,8z" fill="#ffffff"/><path fill-rule="evenodd" d="M 5,7 6,7 6,8 7,8 7,10 6,10 6,9 5,9 5,10 4,10 4,8 5,8z" fill="#ffffff"/><path fill-rule="evenodd" d="M 7,7 8,7 8,8 7,8z" fill="#ffffff"/></svg>